# xmcd
#
# Track frame offsets:
#	150
#	19784
#	40634
#	57025
#	79345
#	117899
#	140664
#	161963
#	181776
#	195188
#	227135
#	255436
#	274173
#	289516
#	309640
#	328738
#	351391
#
# Disc length: 4799 seconds
#
# Revision: 0
# Processed by: cddbd v1.5.2PL0 Copyright (c) Steve Scherf et al.
# Submitted via: dBpowerAMP V4.0
#
DISCID=ef12bd11
DTITLE=BB KING and ERIC CLAPTON - Riding With The King
DYEAR=2001
DGENRE=Blues
TTITLE0=Riding With The King
TTITLE1=Ten Long Years
TTITLE2=Key To The Highway
TTITLE3=Marry You
TTITLE4=3 O'clock Blues
TTITLE5=Help The Poor
TTITLE6=I Wanna Be
TTITLE7=Worried Life Blues
TTITLE8=Day Of Old
TTITLE9=When My Heart Beats Like A Hammer
TTITLE10=Hold On I'm Coming
TTITLE11=Come Rain Or Come Shine
TTITLE12=Reptile
TTITLE13=Got You On My Mind
TTITLE14=Travelling Light
TTITLE15=Believe In Life
TTITLE16=I Want A Little Girl
EXTD=
EXTT0=
EXTT1=
EXTT2=
EXTT3=
EXTT4=
EXTT5=
EXTT6=
EXTT7=
EXTT8=
EXTT9=
EXTT10=
EXTT11=
EXTT12=
EXTT13=
EXTT14=
EXTT15=
EXTT16=
PLAYORDER=
